<?xml version="1.0"?>
<mxfile host="Electron" modified="2022-06-13T05:47:48.060Z" agent="5.0 (X11; Linux x86_64) AppleWebKit/537.36 (KHTML, like Gecko) draw.io/18.1.3 Chrome/100.0.4896.143 Electron/18.2.3 Safari/537.36" etag="BdE9kD3nzK40LdXCPl8V" version="18.1.3">
  <diagram id="-Yb7MJmJyub1H3ZWuGcG" name="Page-1">
    <mxGraphModel dx="2" dy="1" grid="1" gridSize="10" guides="1" tooltips="1" connect="1" arrows="1" fold="1" page="1" pageScale="1" pageWidth="850" pageHeight="1100" math="0" shadow="0">
      <root>
        <mxCell id="0"/>
        <mxCell id="1" parent="0"/>
        <mxCell id="c4HrxL-RM0CBZHPLOsDp-19" value="" style="rounded=0;whiteSpace=wrap;html=1;sketch=0;fillColor=#FFFCCC;gradientDirection=radial;strokeColor=#d6b656;" parent="1" vertex="1">
          <mxGeometry x="80" y="80" width="600" height="350" as="geometry"/>
        </mxCell>
        <mxCell id="c4HrxL-RM0CBZHPLOsDp-3" value="" style="rounded=0;whiteSpace=wrap;html=1;gradientDirection=radial;fillColor=#FFF000;strokeColor=none;sketch=1;" parent="1" vertex="1">
          <mxGeometry x="160" y="80" width="440" height="350" as="geometry"/>
        </mxCell>
        <mxCell id="c4HrxL-RM0CBZHPLOsDp-4" value="" style="rounded=0;whiteSpace=wrap;html=1;gradientDirection=radial;fillColor=#FF7777;strokeColor=none;sketch=1;" parent="1" vertex="1">
          <mxGeometry x="80" y="80" width="20" height="350" as="geometry"/>
        </mxCell>
        <mxCell id="c4HrxL-RM0CBZHPLOsDp-12" value="" style="rounded=0;whiteSpace=wrap;html=1;gradientDirection=radial;fillColor=#FF9555;strokeColor=none;sketch=1;" parent="1" vertex="1">
          <mxGeometry x="100" y="80" width="20" height="350" as="geometry"/>
        </mxCell>
        <mxCell id="c4HrxL-RM0CBZHPLOsDp-13" value="" style="rounded=0;whiteSpace=wrap;html=1;gradientDirection=radial;fillColor=#FFB333;strokeColor=none;sketch=1;" parent="1" vertex="1">
          <mxGeometry x="120" y="80" width="20" height="350" as="geometry"/>
        </mxCell>
        <mxCell id="c4HrxL-RM0CBZHPLOsDp-14" value="" style="rounded=0;whiteSpace=wrap;html=1;gradientDirection=radial;fillColor=#FFD111;strokeColor=none;sketch=1;" parent="1" vertex="1">
          <mxGeometry x="140" y="80" width="20" height="350" as="geometry"/>
        </mxCell>
        <mxCell id="c4HrxL-RM0CBZHPLOsDp-15" value="" style="rounded=0;whiteSpace=wrap;html=1;gradientDirection=radial;fillColor=#FF7777;strokeColor=none;sketch=1;" parent="1" vertex="1">
          <mxGeometry x="660" y="80" width="20" height="350" as="geometry"/>
        </mxCell>
        <mxCell id="c4HrxL-RM0CBZHPLOsDp-16" value="" style="rounded=0;whiteSpace=wrap;html=1;gradientDirection=radial;fillColor=#FF9555;strokeColor=none;sketch=1;" parent="1" vertex="1">
          <mxGeometry x="640" y="80" width="20" height="350" as="geometry"/>
        </mxCell>
        <mxCell id="c4HrxL-RM0CBZHPLOsDp-17" value="" style="rounded=0;whiteSpace=wrap;html=1;gradientDirection=radial;fillColor=#FFB333;strokeColor=none;sketch=1;" parent="1" vertex="1">
          <mxGeometry x="620" y="80" width="20" height="350" as="geometry"/>
        </mxCell>
        <mxCell id="c4HrxL-RM0CBZHPLOsDp-18" value="" style="rounded=0;whiteSpace=wrap;html=1;gradientDirection=radial;fillColor=#FFD111;strokeColor=none;sketch=1;" parent="1" vertex="1">
          <mxGeometry x="600" y="80" width="20" height="350" as="geometry"/>
        </mxCell>
        <mxCell id="c4HrxL-RM0CBZHPLOsDp-20" value="" style="endArrow=none;html=1;rounded=0;sketch=1;strokeWidth=4;fillColor=#f5f5f5;strokeColor=#FFFFFF;" parent="1" edge="1">
          <mxGeometry width="50" height="50" relative="1" as="geometry">
            <mxPoint x="100" y="430" as="sourcePoint"/>
            <mxPoint x="100" y="80" as="targetPoint"/>
          </mxGeometry>
        </mxCell>
        <mxCell id="c4HrxL-RM0CBZHPLOsDp-21" value="" style="endArrow=none;html=1;rounded=0;sketch=1;strokeWidth=4;fillColor=#f5f5f5;strokeColor=#FFFFFF;" parent="1" edge="1">
          <mxGeometry width="50" height="50" relative="1" as="geometry">
            <mxPoint x="120" y="430" as="sourcePoint"/>
            <mxPoint x="120" y="80" as="targetPoint"/>
          </mxGeometry>
        </mxCell>
        <mxCell id="c4HrxL-RM0CBZHPLOsDp-22" value="" style="endArrow=none;html=1;rounded=0;sketch=1;strokeWidth=4;fillColor=#f5f5f5;strokeColor=#FFFFFF;" parent="1" edge="1">
          <mxGeometry width="50" height="50" relative="1" as="geometry">
            <mxPoint x="140.0000000000001" y="430" as="sourcePoint"/>
            <mxPoint x="140.0000000000001" y="80" as="targetPoint"/>
          </mxGeometry>
        </mxCell>
        <mxCell id="c4HrxL-RM0CBZHPLOsDp-23" value="" style="endArrow=none;html=1;rounded=0;sketch=1;strokeWidth=4;fillColor=#f5f5f5;strokeColor=#FFFFFF;" parent="1" edge="1">
          <mxGeometry width="50" height="50" relative="1" as="geometry">
            <mxPoint x="159.31000000000012" y="430" as="sourcePoint"/>
            <mxPoint x="159.31000000000012" y="80" as="targetPoint"/>
          </mxGeometry>
        </mxCell>
        <mxCell id="c4HrxL-RM0CBZHPLOsDp-24" value="" style="endArrow=none;html=1;rounded=0;sketch=1;strokeWidth=4;fillColor=#f5f5f5;strokeColor=#FFFFFF;" parent="1" edge="1">
          <mxGeometry width="50" height="50" relative="1" as="geometry">
            <mxPoint x="620.0000000000002" y="430" as="sourcePoint"/>
            <mxPoint x="620.0000000000002" y="80" as="targetPoint"/>
          </mxGeometry>
        </mxCell>
        <mxCell id="c4HrxL-RM0CBZHPLOsDp-25" value="" style="endArrow=none;html=1;rounded=0;sketch=1;strokeWidth=4;fillColor=#f5f5f5;strokeColor=#FFFFFF;" parent="1" edge="1">
          <mxGeometry width="50" height="50" relative="1" as="geometry">
            <mxPoint x="640.0000000000002" y="430" as="sourcePoint"/>
            <mxPoint x="640.0000000000002" y="80" as="targetPoint"/>
          </mxGeometry>
        </mxCell>
        <mxCell id="c4HrxL-RM0CBZHPLOsDp-26" value="" style="endArrow=none;html=1;rounded=0;sketch=1;strokeWidth=4;fillColor=#f5f5f5;strokeColor=#FFFFFF;" parent="1" edge="1">
          <mxGeometry width="50" height="50" relative="1" as="geometry">
            <mxPoint x="660.0000000000002" y="430" as="sourcePoint"/>
            <mxPoint x="660.0000000000002" y="80" as="targetPoint"/>
          </mxGeometry>
        </mxCell>
        <mxCell id="c4HrxL-RM0CBZHPLOsDp-27" value="" style="endArrow=none;html=1;rounded=0;sketch=1;strokeWidth=4;fillColor=#f5f5f5;strokeColor=#FFFFFF;" parent="1" edge="1">
          <mxGeometry width="50" height="50" relative="1" as="geometry">
            <mxPoint x="600.0000000000002" y="430" as="sourcePoint"/>
            <mxPoint x="600.0000000000002" y="80" as="targetPoint"/>
          </mxGeometry>
        </mxCell>
      </root>
    </mxGraphModel>
  </diagram>
</mxfile>
